# xmcd
#
# Track frame offsets:
#	150
#	18033
#	33408
#	51988
#	68016
#	85649
#	104863
#	122744
#	138249
#	156841
#	172882
#	190484
#
# Disc length: 2797 seconds
#
# Revision: 1
# Processed by: cddbd v1.5.2PL0 Copyright (c) Steve Scherf et al.
# Submitted via: audiograbber 1.83.01
#
DISCID=9b0aeb0c
DTITLE=Rebecca Lynn Howard - Chartbuster 20583
DYEAR=1900
DGENRE=karaoke
TTITLE0=I Need A Vacation (vocal)
TTITLE1=When My Dreams Come True (vocal)
TTITLE2=Forgive (vocal)
TTITLE3=Out Here In The Water (vocal)
TTITLE4=What A Shame (vocal)
TTITLE5=No One'll Ever Love Me (vocal)
TTITLE6=I Need A Vacation
TTITLE7=When My Dreams Come True
TTITLE8=Forgive
TTITLE9=Out Here In The Water
TTITLE10=What A Shame
TTITLE11=No One'll Ever Love Me
EXTD=karaoke
EXTT0=
EXTT1=
EXTT2=
EXTT3=
EXTT4=
EXTT5=
EXTT6=
EXTT7=
EXTT8=
EXTT9=
EXTT10=
EXTT11=
PLAYORDER=
